<svg xmlns="http://www.w3.org/2000/svg" version="1.1" x="0" y="0" viewBox="0 0 512 640" enable-background="new 0 0 512 512" xml:space="preserve"><path d="M416.7 151.3l-7.3-22.2c-1-2.9-3.2-5.3-6-6.5l-10.4-4.4 -38.3-47.7c-0.7-0.8-1.4-1.5-2.3-2.1l-97.8-66.6c-4.2-2.9-9.9-2.4-13.5 1.2 -3.6 3.6-4.2 9.3-1.4 13.5l48.2 72.2c-4.2 6.3-11.3 16.9-19.3 27.6 -17.5 23.5-26.4 30.8-29.9 33 -9.7-8.7-17.8-23.7-23.7-43.7 -5.1-17.2-6.5-32-6.6-32.1 0 0 0 0 0 0 0-0.1 0-0.2-0.1-0.4 0-0.2-0.1-0.5-0.1-0.7 0 0 0-0.1 0-0.1l-4.5-21.3c-1.2-5.8-6.9-9.5-12.6-8.2 -5.8 1.2-9.5 6.9-8.2 12.6l1.7 8.3c-16.3 0.2-44.7 2.2-74.5 11.4 -40.5 12.5-70.4 34.2-88.9 64.5 -38 62.3-24.9 156.9 39 281.2 1.8 3.4 5.2 5.6 9.1 5.8 3.9 0.2 7.5-1.8 9.5-5.1l51.3-83.5 22.5 21.6c2.5 2.4 6 3.4 9.4 2.8 3.4-0.6 6.3-2.9 7.7-6l55.2-119.6 15.2 4.5c30 34.5 5 99.2-21.7 148 -30.8 56.4-71 104.6-71.5 105.1 -3.4 4-3.3 9.9 0.1 13.8 2.1 2.4 5.1 3.7 8.1 3.7 1.9 0 3.8-0.5 5.6-1.6 1.8-1.1 43.4-26.7 87.7-67.2 26.2-23.9 47.8-48 64.2-71.7 20.9-30.2 33.6-59.7 37.5-88 5.8-41.3-6.6-79.6-36.9-114l-1-11.8 15.2-18.4 5.7 11.4c1.1 2.2 3 4 5.2 5l43.8 19.4c3 1.3 6.4 1.2 9.3-0.3l20.2-10.7C416.2 161.7 418.4 156.3 416.7 151.3zM386 153.5l-35.6-15.7 -11.4-22.7c-1.6-3.2-4.7-5.4-8.3-5.8 -3.6-0.4-7.1 1-9.4 3.8l-28.4 34.5c-1.8 2.1-2.6 4.9-2.4 7.7l1.7 19.7c0.2 2.3 1.2 4.6 2.8 6.3 14.5 15.9 24.6 32.7 30.1 50 5 15.7 6.3 32.3 3.9 49.3 -8 56.9-55.9 111.2-94.7 146.7 -10.1 9.3-20.2 17.8-29.6 25.4 10.6-15.6 21.9-33.7 32.4-52.7 19-34.7 31-65.7 35.8-92.3 6.3-35.4-0.1-63.3-19.1-82.9 -1.3-1.3-2.9-2.3-4.6-2.8l-26.9-8c-1-0.3-2-0.4-3-0.4 -4.1 0-7.9 2.3-9.7 6.2l-52.8 114.4 -21.2-20.4c-2.3-2.2-5.5-3.3-8.7-2.9 -3.2 0.4-6.1 2.3-7.7 5l-48.2 78.5C43.2 337.5 27.1 287.6 22.6 245.7c-4-38.1 1.6-70 16.8-94.9 15.7-25.7 41.6-44.3 77-55.2 29.4-9.1 57.6-10.5 71.8-10.5 0.1 0 0.1 0 0.2 0 0.5 3.3 1.3 7.3 2.2 11.7 -24.5 2.5-76.7 12.6-109.6 53.5 -27.4 34.1-34.7 81.2-21.7 140 1.1 5 5.5 8.4 10.4 8.4 0.8 0 1.5-0.1 2.3-0.2 5.8-1.3 9.4-7 8.1-12.7 -11.5-52.1-5.6-93.1 17.4-121.9 29.4-36.6 79.5-44.4 98.7-46 2 5.9 4.1 11.5 6.4 16.6 -9.4 2.3-22.1 6.6-34.7 14.2 -23.1 14-50.7 42.1-50.7 96.7 0 5.9 4.8 10.7 10.7 10.7 5.9 0 10.7-4.8 10.7-10.7 0-35.6 13.4-61.8 39.7-78.1 13.8-8.5 27.9-12.1 35.6-13.5 4.3 5.8 9 10.7 14.1 14.7 2.7 2.1 6 3.2 9.5 3.2 7.1 0 14.8-4.5 24.7-14.4 6.3-6.3 13.6-15.1 21.8-25.9 13.7-18.2 25.1-36.1 25.6-36.8 2.3-3.6 2.2-8.1-0.1-11.6l-21.7-32.5 51.2 34.9 39 48.5c1.1 1.4 2.6 2.5 4.2 3.2l8.5 3.5 3 9L386 153.5zM498.1 207.4c-4.8-3.4-11.5-2.3-14.9 2.5 -3.4 4.8-2.3 11.4 2.4 14.9 4 2.9 5.2 5.5 4.9 6.9 -0.2 1-1 1.8-2.1 2.2 -2.4 0.8-5.6-0.7-8.6-3.8 -23.1-24-56.1-55.1-56.4-55.5 -4.3-4-11-3.9-15.1 0.4 -4 4.3-3.8 11 0.4 15.1 0.3 0.3 33 31.2 55.7 54.8 6.6 6.8 14.7 10.5 22.7 10.5 2.6 0 5.2-0.4 7.7-1.2 8.9-2.8 15.4-10.1 16.8-19.1C513.3 224.8 508.3 214.8 498.1 207.4z"/></svg>