<svg xmlns="http://www.w3.org/2000/svg" version="1.1" x="0" y="0" viewBox="0 0 42.3 42.3" xml:space="preserve" width="512" height="512"><path d="M31 22.3c0.3 0.1 0.1-0.5-0.5-1.5l-0.4-0.6c-0.6-0.9-0.9-1.6-0.6-1.6 0.3 0 0-0.4-0.7-0.9 -0.7-0.6-1-1-0.7-1.1s-0.4-0.5-1.4-0.9c-1.9-0.9-3.8-1.8-5-3.5 -0.3-0.5-0.5-1-0.4-1.4 0.1-0.8 0.9-1 1-0.9l0.2 0.3c0.5 0.7 1.3 1.3 2.9 1.4 1.1 0.1 1.8 0.7 2.4 1.4 0.3 0.3 0.6 0.5 0.9 0.6 0.6 0.2 0.9-0.3 0.7-0.4 -0.2-0.1-1.1-0.5-0.8-1s0.8-1.1 0.9-1.6c0-0.5-0.7-0.9-1-1.1l-0.6-0.4c-0.2-0.1-0.4-0.2-0.6-0.2 -0.3-0.1-0.8-0.3-1.2-0.5 -0.4-0.2-1.2-0.2-1.2-0.5 0-0.1 0.2-0.2 0.5-0.3 0.7-0.2 1.3-0.2 2 0.2 0.5 0.3 1.3 0.5 2.1 0.6 1.1 0.2 2.2 0.4 2.4 0.2 0.2-0.2 0.3-1.2 0.3-2s-0.9-1.3-2-1.4c-2.3-0.3-2.8-2.3-3.8-3.7 -0.7-0.9-1.4-0.5-1.9-0.3 -0.2 0.1-0.5 0-0.9-0.3 -0.3-0.2-0.6-0.4-0.9-0.6 -0.5-0.3-0.2 0.6-1 0.9 -0.8 0.2-1.6-1-2.1-1s-0.2 0.3 0.1 0.9c0.2 0.4 0.1 0.8-0.5 0.6 -0.6-0.1-1.1-0.1-1.6 0 -0.9 0.2-1.1 0.8-0.7 0.8 0.4 0 1.3 0.1 1.6 0.6 0.2 0.3 0 0.6-0.6 0.5 -0.4 0-0.7 0-0.9 0.2 -0.5 0.3-0.1 0.3 0.4 0.6 0.2 0.1 0.1 0.5-0.3 0.9 -5.1 5.8 3.1 10.3 5.4 16.1 0.4 1 0.1 1.2-0.6 0.2 -5.8-8.6-12.2-10.1-19.1-5.8 -0.9 0.6-0.8 1 0.3 0.9 1-0.1 2-0.1 2.9 0.1 1.1 0.3 2 0.7 1.3 1.2 -1.9 1.1-4.1 2.3-5 3.4 -0.6 0.9-0.3 0.8 0.6 0 0.8-0.7 2.1-1.1 3.8-1.4 1.1-0.2 2.4-0.5 2.9-0.6 0.4 0 0.5 0.2 0.3 0.7 -0.3 0.6-0.5 1.2-0.7 1.8 -0.4 1 0 1.3 0.9 0.6 10.8-7.4 16.7 12.2 7.1 7.3 -1-0.5-1.3-0.2-0.6 0.6 4 4.6 10.5 0 9.3-8.5 -0.2-1.1 0.1-1.2 0.5-0.2 1.4 3.5 0.9 7.1-0.9 10C24.8 33.6 19 36.9 23.4 41.8c0.7 0.8 1 0.6 0.4-0.4 -1.1-2.1-1.6-3.9 1.2-5.9 2.1-1.2 4.2-3.9 5.1-8.2 0.2-1.1 0.8-1.2 1-0.1 0.2 0.7 0.2 1.5 0.3 2.2 0.1 1.1 0.2 1.1 0.2 0 0-1.8-0.2-3.7-0.7-5.5C30.7 22.9 30.7 22.1 31 22.3zM24.8 2.6c0.5 0 0.8 0.4 0.8 0.8s-0.4 0.8-0.8 0.8 -0.8-0.4-0.8-0.8C23.9 2.9 24.3 2.6 24.8 2.6zM39.1 14.6c-0.3-0.1-0.5-0.1-0.7-0.2 -1-0.4-0.4-1.4-1.1-2.3 -0.1-0.1-0.1-0.1-0.2-0.2 -0.7-0.9-1.5-0.4-2.4-1 -0.1-0.1-0.3-0.2-0.4-0.3 -0.8-0.8-1.9-0.7-3-0.8 -0.3 0-0.6-0.1-0.9-0.2 -1.1-0.2-1.2 0.1-0.3 0.7 0.8 0.5 1.6 1 2.1 1.5 0.8 0.7 0.9 1.9 1.4 1.6s1.4-0.3 2.1 0.5c0.8 1.1 1.9 2.2 3.5 1.7C40.4 15.3 40.2 14.9 39.1 14.6z" fill="#933EC5"/></svg>
